<svg width="34" height="24" viewBox="0 0 34 24" fill="none" xmlns="http://www.w3.org/2000/svg">
<path d="M27.7909 10.0127C27.4249 9.90798 27.0435 10.1199 26.9389 10.4857C26.8343 10.8516 27.0461 11.2331 27.4119 11.3376C30.5569 12.2371 32.5106 13.5417 32.5106 14.7424C32.5106 15.621 31.4419 16.5854 29.5786 17.3884C27.5286 18.2717 24.6205 18.918 21.3866 19.2091L18.5642 19.1709C18.5609 19.1709 18.5578 19.1708 18.5546 19.1708C18.1784 19.1708 17.8709 19.4732 17.8658 19.8506C17.8607 20.231 18.165 20.5437 18.5454 20.5488L21.4035 20.5875C21.4066 20.5875 21.4097 20.5876 21.4128 20.5876C21.4333 20.5876 21.4537 20.5867 21.474 20.5849C24.8638 20.2827 27.9357 19.5969 30.124 18.654C33.2355 17.3131 33.8886 15.7867 33.8886 14.7424C33.8886 12.817 31.723 11.1373 27.7909 10.0127Z" fill="#271A45"/>
<path d="M7.49045 9.22778C7.10997 9.22778 6.80142 9.53626 6.80142 9.91681C6.80142 10.2974 7.10997 10.6058 7.49045 10.6058H10.3238V13.4538H7.49045C7.10997 13.4538 6.80142 13.7623 6.80142 14.1428C6.80142 14.5234 7.10997 14.8319 7.49045 14.8319H11.0128C11.3934 14.8319 11.7019 14.5234 11.7019 14.1428V5.69077C11.7019 5.31022 11.3934 5.00174 11.0128 5.00174H7.49045C7.10997 5.00174 6.80142 5.31022 6.80142 5.69077C6.80142 6.07133 7.10997 6.37981 7.49045 6.37981H10.3238V9.22778H7.49045Z" fill="#271A45"/>
<path d="M13.8295 14.8319H18.0556C18.4361 14.8319 18.7447 14.5235 18.7447 14.1429V9.91688C18.7447 9.53633 18.4362 9.22785 18.0556 9.22785H14.5186V6.37981H17.3519C17.7325 6.37981 18.0409 6.07133 18.0409 5.69077C18.0409 5.31022 17.7325 5.00174 17.3519 5.00174H13.8295C13.449 5.00174 13.1405 5.31022 13.1405 5.69077V14.1429C13.1405 14.5235 13.449 14.8319 13.8295 14.8319ZM14.5186 10.6058H17.3666V13.4538H14.5186V10.6058Z" fill="#271A45"/>
<path d="M20.8743 14.8319H25.1004C25.4809 14.8319 25.7895 14.5235 25.7895 14.1429V5.69077C25.7895 5.31022 25.4809 5.00174 25.1004 5.00174H20.8743C20.4938 5.00174 20.1853 5.31022 20.1853 5.69077V14.1429C20.1853 14.5235 20.4938 14.8319 20.8743 14.8319ZM21.5633 6.37981H24.4114V13.4539H21.5633V6.37981Z" fill="#271A45"/>
<path d="M13.4146 16.5456C13.1688 16.2551 12.734 16.2188 12.4435 16.4645C12.153 16.7103 12.1167 17.145 12.3624 17.4356L13.9035 19.2574C10.6516 19.0094 7.70629 18.4134 5.54074 17.5589C3.41335 16.7194 2.19322 15.6929 2.19322 14.7424C2.19322 13.6387 3.8287 12.4493 6.56808 11.5607C6.9301 11.4433 7.12833 11.0547 7.01092 10.6927C6.89358 10.3307 6.50483 10.1325 6.14295 10.2498C4.54929 10.7667 3.28554 11.3817 2.3867 12.0775C1.34392 12.8851 0.815155 13.7816 0.815155 14.7424C0.815155 16.3343 2.27439 17.7514 5.03492 18.8407C7.27868 19.7261 10.2872 20.3476 13.5945 20.6155L12.2203 22.1386C11.9653 22.4211 11.9877 22.8568 12.2702 23.1117C12.402 23.2306 12.5671 23.2892 12.7316 23.2892C12.9198 23.2892 13.1073 23.2125 13.2433 23.0617L15.7505 20.2832C15.8648 20.1566 15.928 19.9922 15.928 19.8216V19.769C15.928 19.606 15.8703 19.4484 15.7651 19.324L13.4146 16.5456Z" fill="#271A45"/>
<path d="M27.0958 4.96632H29.9125C30.293 4.96632 30.6015 4.65785 30.6015 4.27729V1.45957C30.6015 1.07902 30.293 0.770538 29.9125 0.770538H27.0958C26.7153 0.770538 26.4068 1.07902 26.4068 1.45957V4.27729C26.4068 4.65785 26.7153 4.96632 27.0958 4.96632ZM27.7848 2.1486H29.2234V3.58826H27.7848V2.1486Z" fill="#271A45"/>
</svg>
